<svg width="154" height="23" viewBox="0 0 154 23" fill="none" xmlns="http://www.w3.org/2000/svg">
<path d="M0.69 22L8.37 0.999999H12.69L20.37 22H16.29L14.61 17.14H6.42L4.71 22H0.69ZM7.47 14.14H13.56L10.5 5.41L7.47 14.14ZM23.0752 22V0.999999H30.7852C32.4652 0.999999 33.8452 1.29 34.9252 1.87C36.0252 2.43 36.8452 3.2 37.3852 4.18C37.9252 5.14 38.1952 6.21 38.1952 7.39C38.1952 8.67 37.8552 9.84 37.1752 10.9C36.5152 11.96 35.4752 12.73 34.0552 13.21L38.4052 22H33.9952L30.0952 13.72H26.9152V22H23.0752ZM26.9152 10.9H30.5452C31.8252 10.9 32.7652 10.59 33.3652 9.97C33.9652 9.35 34.2652 8.53 34.2652 7.51C34.2652 6.51 33.9652 5.71 33.3652 5.11C32.7852 4.51 31.8352 4.21 30.5152 4.21H26.9152V10.9ZM41.7666 22V0.999999H46.3266L53.0166 14.32L59.6166 0.999999H64.1766V22H60.3366V7.51L54.4866 19H51.4566L45.6066 7.51V22H41.7666ZM73.6809 22V14.53L66.6309 0.999999H70.9809L75.6309 10.69L80.2509 0.999999H84.5409L77.5209 14.53V22H73.6809ZM94.8333 22.36C92.8533 22.36 91.1233 21.91 89.6433 21.01C88.1633 20.11 87.0133 18.86 86.1933 17.26C85.3733 15.64 84.9633 13.76 84.9633 11.62C84.9633 9.46 85.3833 7.56 86.2233 5.92C87.0833 4.26 88.2933 2.97 89.8533 2.05C91.4333 1.11 93.3033 0.64 95.4633 0.64C97.9233 0.64 99.9633 1.23 101.583 2.41C103.203 3.59 104.253 5.22 104.733 7.3H100.443C100.123 6.32 99.5433 5.56 98.7033 5.02C97.8633 4.46 96.7833 4.18 95.4633 4.18C93.3633 4.18 91.7433 4.85 90.6033 6.19C89.4633 7.51 88.8933 9.33 88.8933 11.65C88.8933 13.97 89.4533 15.77 90.5733 17.05C91.7133 18.31 93.2533 18.94 95.1933 18.94C97.0933 18.94 98.5233 18.43 99.4833 17.41C100.463 16.37 101.053 15.01 101.253 13.33H95.9433V10.45H105.123V22H101.583L101.283 19.24C100.603 20.24 99.7533 21.01 98.7333 21.55C97.7133 22.09 96.4133 22.36 94.8333 22.36ZM108.856 22V0.999999H116.566C118.246 0.999999 119.626 1.29 120.706 1.87C121.806 2.43 122.626 3.2 123.166 4.18C123.706 5.14 123.976 6.21 123.976 7.39C123.976 8.67 123.636 9.84 122.956 10.9C122.296 11.96 121.256 12.73 119.836 13.21L124.186 22H119.776L115.876 13.72H112.696V22H108.856ZM112.696 10.9H116.326C117.606 10.9 118.546 10.59 119.146 9.97C119.746 9.35 120.046 8.53 120.046 7.51C120.046 6.51 119.746 5.71 119.146 5.11C118.566 4.51 117.616 4.21 116.296 4.21H112.696V10.9ZM127.548 22V0.999999H131.388V22H127.548ZM135.458 22V0.999999H142.628C145.088 0.999999 147.108 1.44 148.688 2.32C150.288 3.18 151.468 4.4 152.228 5.98C153.008 7.54 153.398 9.38 153.398 11.5C153.398 13.62 153.008 15.47 152.228 17.05C151.468 18.61 150.288 19.83 148.688 20.71C147.108 21.57 145.088 22 142.628 22H135.458ZM139.298 18.7H142.448C144.208 18.7 145.598 18.42 146.618 17.86C147.638 17.28 148.368 16.46 148.808 15.4C149.248 14.32 149.468 13.02 149.468 11.5C149.468 10 149.248 8.71 148.808 7.63C148.368 6.55 147.638 5.72 146.618 5.14C145.598 4.56 144.208 4.27 142.448 4.27H139.298V18.7Z" fill="black"/>
</svg>
